HIERARCHY
ROOT Hips
{
	OFFSET 0.000000 0.000000 0.000000
	CHANNELS 6 Xposition Yposition Zposition Xrotation Yrotation Zrotation
	JOINT LeftUpLeg_virtual
	{
		OFFSET 0.000000 0.000000 0.000000
		CHANNELS 3 Xrotation Yrotation Zrotation
		JOINT LeftUpLeg
		{
			OFFSET 10.205400 -3.823500 0.155100
			CHANNELS 3 Xrotation Yrotation Zrotation
			JOINT LeftLeg
			{
				OFFSET 0.708757 -12.982077 0.567790
				CHANNELS 3 Xrotation Yrotation Zrotation
				JOINT LeftFoot
				{
					OFFSET -0.708756 -10.717838 -2.184338
					CHANNELS 3 Xrotation Yrotation Zrotation
					JOINT LeftToeBase
					{
						OFFSET 0.108149 -7.191104 7.560241
						CHANNELS 3 Xrotation Yrotation Zrotation
						JOINT LeftToe_End
						{
							OFFSET 0.070230 0.081724 4.490308
							CHANNELS 3 Xrotation Yrotation Zrotation
							End Site
							{
								OFFSET 0 0 0
							}
						}
					}
				}
			}
		}
	}
	JOINT RightUpLeg_virtual
	{
		OFFSET 0.000000 0.000000 0.000000
		CHANNELS 3 Xrotation Yrotation Zrotation
		JOINT RightUpLeg
		{
			OFFSET -10.205400 -3.823500 0.005500
			CHANNELS 3 Xrotation Yrotation Zrotation
			JOINT RightLeg
			{
				OFFSET -0.708756 -12.982134 0.610632
				CHANNELS 3 Xrotation Yrotation Zrotation
				JOINT RightFoot
				{
					OFFSET 0.708754 -10.717769 -1.945823
					CHANNELS 3 Xrotation Yrotation Zrotation
					JOINT RightToeBase
					{
						OFFSET -0.108140 -7.191069 7.372968
						CHANNELS 3 Xrotation Yrotation Zrotation
						JOINT RightToe_End
						{
							OFFSET -0.070227 0.081735 4.479403
							CHANNELS 3 Xrotation Yrotation Zrotation
							End Site
							{
								OFFSET 0 0 0
							}
						}
					}
				}
			}
		}
	}
	JOINT Spine_virtual
	{
		OFFSET 0.000000 0.000000 0.000000
		CHANNELS 3 Xrotation Yrotation Zrotation
		JOINT Spine
		{
			OFFSET 0.000000 6.876099 0.125700
			CHANNELS 3 Xrotation Yrotation Zrotation
			JOINT Spine1
			{
				OFFSET 0.000000 5.730043 0.104720
				CHANNELS 3 Xrotation Yrotation Zrotation
				JOINT Spine1_split
				{
					OFFSET 0.000000 5.730043 0.104720
					CHANNELS 3 Xrotation Yrotation Zrotation
					JOINT Spine2
					{
						OFFSET 0.000000 5.730043 0.104720
						CHANNELS 3 Xrotation Yrotation Zrotation
						JOINT Neck_virtual
						{
							OFFSET 0.000000 0.000000 0.000000
							CHANNELS 3 Xrotation Yrotation Zrotation
							JOINT Neck
							{
								OFFSET 0.000000 10.314075 0.188496
								CHANNELS 3 Xrotation Yrotation Zrotation
								JOINT Head
								{
									OFFSET 0.000000 7.643700 -2.377400
									CHANNELS 3 Xrotation Yrotation Zrotation
									JOINT HeadTop_End
									{
										OFFSET 0.000000 43.788605 -13.619600
										CHANNELS 3 Xrotation Yrotation Zrotation
										End Site
										{
											OFFSET 0 0 0
										}
									}
								}
							}
						}
						JOINT LeftShoulder_virtual
						{
							OFFSET 0.000000 0.000000 0.000000
							CHANNELS 3 Xrotation Yrotation Zrotation
							JOINT LeftShoulder
							{
								OFFSET 2.196100 4.412489 0.087492
								CHANNELS 3 Xrotation Yrotation Zrotation
								JOINT LeftShoulder_split
								{
									OFFSET 2.196100 4.412489 0.087492
									CHANNELS 3 Xrotation Yrotation Zrotation
									JOINT LeftArm
									{
										OFFSET 8.771219 -2.981674 -0.026999
										CHANNELS 3 Xrotation Yrotation Zrotation
										JOINT LeftForeArm
										{
											OFFSET 8.512804 0.000000 -0.000000
											CHANNELS 3 Xrotation Yrotation Zrotation
											JOINT LeftHand
											{
												OFFSET 18.484802 0.000000 -0.000000
												CHANNELS 3 Xrotation Yrotation Zrotation
												End Site
												{
													OFFSET 0 0 0
												}
											}
										}
									}
								}
							}
						}
						JOINT RightShoulder_virtual
						{
							OFFSET 0.000000 0.000000 0.000000
							CHANNELS 3 Xrotation Yrotation Zrotation
							JOINT RightShoulder
							{
								OFFSET -2.196100 4.412496 0.070690
								CHANNELS 3 Xrotation Yrotation Zrotation
								JOINT RightShoulder_split
								{
									OFFSET -2.196100 4.412496 0.070690
									CHANNELS 3 Xrotation Yrotation Zrotation
									JOINT RightArm
									{
										OFFSET -8.771282 -2.981682 -0.094208
										CHANNELS 3 Xrotation Yrotation Zrotation
										JOINT RightForeArm
										{
											OFFSET -8.494598 0.000000 0.000000
											CHANNELS 3 Xrotation Yrotation Zrotation
											JOINT RightHand
											{
												OFFSET -18.483803 0.000000 0.000001
												CHANNELS 3 Xrotation Yrotation Zrotation
												End Site
												{
													OFFSET 0 0 0
												}
											}
										}
									}
								}
							}
						}
					}
				}
			}
		}
	}
}
MOTION
Frames: 5
Frame Time: 0.03333333
0.568704 45.992584 7.897423 0.000000 0.000000 0.000000 -89.646861 0.347007 0.708324 -12.936079 14.591883 21.691228 18.358893 5.111767 -0.857978 23.929289 31.498514 -32.007677 -4.397756 0.000006 0.000001 0.000000 0.000000 0.000000 -89.646861 0.347007 0.708324 -16.092465 -13.414411 -16.374188 25.213659 -4.778938 -7.396682 31.716817 -31.981951 35.500970 -9.125684 0.000071 -0.000017 0.000000 0.000000 0.000000 -89.646861 0.347007 0.708324 1.065471 -1.167174 0.966971 -0.317542 -2.434542 0.230483 0.000000 0.000000 0.000000 0.000000 0.000000 0.000000 -0.303413 -2.418347 0.331942 -10.007551 0.108424 -1.808070 8.693202 -2.170252 1.510697 0.000000 0.000000 0.000000 -0.303413 -2.418347 0.331942 0.422242 -0.102944 -3.997402 0.000000 0.000000 0.000000 35.266541 -28.376666 -54.536960 0.000027 -80.459622 0.000069 0.000000 0.000000 0.000000 -0.303413 -2.418347 0.331942 0.672260 1.791900 13.905534 0.000000 0.000000 0.000000 39.524416 30.882072 33.636349 179.999950 78.646691 -180.000005 0.000000 0.000000 0.000000 
0.564416 45.988251 7.892979 0.000000 0.000000 0.000000 -89.645386 0.345130 0.712773 -12.912111 14.565612 21.723509 18.491849 5.123774 -0.944004 23.943068 31.505525 -31.956823 -4.495529 -0.000017 0.000029 0.000000 0.000000 0.000000 -89.645386 0.345130 0.712773 -16.091687 -13.423982 -16.330262 25.227760 -4.801498 -7.456824 31.590742 -32.027119 35.456116 -9.020545 0.000057 0.000005 0.000000 0.000000 0.000000 -89.645386 0.345130 0.712773 1.072339 -1.484192 0.964820 -0.122007 -3.167863 0.318246 0.000000 0.000000 0.000000 0.000000 0.000000 0.000000 -0.192743 -2.885992 0.467762 -10.438611 0.101446 -1.869202 8.494244 -2.149575 1.244426 0.000000 0.000000 0.000000 -0.192743 -2.885992 0.467762 0.143289 2.780178 -4.408347 0.000000 0.000000 0.000000 35.798049 -29.342127 -53.528012 0.000017 -80.441132 0.000020 0.000000 0.000000 0.000000 -0.192743 -2.885992 0.467762 0.595528 2.019714 13.895000 0.000000 0.000000 0.000000 37.989420 32.092293 32.256320 179.999937 78.039938 -179.999964 0.000000 0.000000 0.000000 
0.558007 45.984203 7.892036 0.000000 0.000000 0.000000 -89.632723 0.289478 0.727090 -12.870271 14.570339 21.742131 18.529907 5.180720 -1.041586 23.985772 31.505976 -31.932767 -4.584143 0.000014 0.000022 0.000000 0.000000 0.000000 -89.632723 0.289478 0.727090 -16.110458 -13.430732 -16.227513 25.369879 -4.812371 -7.601113 31.158131 -32.153040 35.355388 -8.737024 0.000073 0.000024 0.000000 0.000000 0.000000 -89.632723 0.289478 0.727090 0.972820 -1.714771 0.948718 0.194118 -3.606527 0.416352 0.000000 0.000000 0.000000 0.000000 0.000000 0.000000 0.025595 -3.299263 0.562685 -10.333468 0.079275 -1.949321 8.269068 -2.095623 0.548456 0.000000 0.000000 0.000000 0.025595 -3.299263 0.562685 -0.239442 3.890322 -4.805993 0.000000 0.000000 0.000000 36.148134 -29.060409 -53.421601 -0.000017 -80.642350 0.000030 0.000000 0.000000 0.000000 0.025595 -3.299263 0.562685 0.496193 2.314834 13.881584 0.000000 0.000000 0.000000 34.462495 33.833933 31.298170 179.999937 77.311690 180.000005 0.000000 0.000000 0.000000 
0.554137 45.994469 7.896870 0.000000 0.000000 0.000000 -89.610381 0.127380 0.758710 -12.767557 14.635045 21.738202 18.355804 5.290103 -1.135954 23.932582 31.488463 -31.923730 -4.577313 -0.000000 0.000025 0.000000 0.000000 0.000000 -89.610381 0.127380 0.758710 -16.209513 -13.409527 -16.133578 25.617393 -4.834745 -7.780493 30.620824 -32.198004 35.227479 -8.449888 0.000052 0.000009 0.000000 0.000000 0.000000 -89.610381 0.127380 0.758710 0.874062 -1.790744 0.913013 0.768281 -3.725312 0.515754 0.000000 0.000000 0.000000 0.000000 0.000000 0.000000 0.446251 -3.410710 0.585424 -10.114581 0.045413 -2.073425 7.592113 -1.998999 -0.471706 0.000000 0.000000 0.000000 0.446251 -3.410710 0.585424 -0.247534 3.634495 -5.320403 0.000000 0.000000 0.000000 35.720503 -28.101299 -53.559246 0.000071 -80.968409 0.000113 0.000000 0.000000 0.000000 0.446251 -3.410710 0.585424 0.335292 2.897689 13.887754 0.000000 0.000000 0.000000 29.551370 35.490360 31.411739 -180.000005 77.256208 179.999964 0.000000 0.000000 0.000000 
0.546281 46.004410 7.895443 0.000000 0.000000 0.000000 -89.519273 -0.099625 0.770655 -12.639596 14.676555 21.776071 18.300771 5.359758 -1.213548 23.679456 31.484297 -31.944122 -4.428554 -0.000008 0.000029 0.000000 0.000000 0.000000 -89.519273 -0.099625 0.770655 -16.399115 -13.379594 -15.992347 25.872931 -4.889773 -7.953730 29.882723 -32.195230 34.905863 -8.072625 0.000076 -0.000014 0.000000 0.000000 0.000000 -89.519273 -0.099625 0.770655 0.800988 -1.653526 0.817740 1.735696 -3.408506 0.582767 0.000000 0.000000 0.000000 0.000000 0.000000 0.000000 1.216218 -3.089490 0.502161 -9.517128 0.003229 -2.228705 6.677061 -1.865889 -1.707772 0.000000 0.000000 0.000000 1.216218 -3.089490 0.502161 -0.206243 3.124014 -5.858853 0.000000 0.000000 0.000000 34.841256 -27.779691 -52.781465 0.000017 -81.219214 0.000045 0.000000 0.000000 0.000000 1.216218 -3.089490 0.502161 0.146420 3.618400 13.896548 0.000000 0.000000 0.000000 23.018537 36.800229 32.193735 -179.999991 76.730058 179.999923 0.000000 0.000000 0.000000 
